<svg xmlns="http://www.w3.org/2000/svg" xmlns:xlink="http://www.w3.org/1999/xlink" width="138.875" height="147.8" viewBox="0 0 138.875 147.8">
  <defs>
    <linearGradient id="linear-gradient" x1="0.5" x2="0.5" y2="1" gradientUnits="objectBoundingBox">
      <stop offset="0" stop-color="#e50111"/>
      <stop offset="1" stop-color="#5c0108"/>
    </linearGradient>
    <filter id="路径_205" x="0" y="0" width="138.875" height="147.8" filterUnits="userSpaceOnUse">
      <feOffset dx="5" dy="5" input="SourceAlpha"/>
      <feGaussianBlur stdDeviation="5" result="blur"/>
      <feFlood flood-opacity="0.749"/>
      <feComposite operator="in" in2="blur"/>
      <feComposite in="SourceGraphic"/>
    </filter>
  </defs>
  <g transform="matrix(1, 0, 0, 1, 0, 0)" filter="url(#路径_205)">
    <path id="路径_205-2" data-name="路径 205" d="M27.125-117.8a6.552,6.552,0,0,0-4.805,1.7l-6.975,5.89a6.9,6.9,0,0,0-2.48,4.34L-3.565-12.09A5.339,5.339,0,0,0-2.17-7.13L1.705-2.17A5.868,5.868,0,0,0,6.51,0h18.6a6.552,6.552,0,0,0,4.805-1.705l6.975-5.89a6.9,6.9,0,0,0,2.48-4.34L55.8-105.71a5.339,5.339,0,0,0-1.4-4.96l-3.875-4.96a5.868,5.868,0,0,0-4.805-2.17ZM37.82-105.09l2.48,3.1L25.11-15.81l-3.72,3.1H14.415l-2.48-3.1,15.19-86.18,3.72-3.1ZM87.265-8.525c.465-2.635-.775-4.185-3.41-4.185H62.62l6.51-36.27,3.565-3.1h10.85a6.552,6.552,0,0,0,4.805-1.705l6.975-5.89a6.9,6.9,0,0,0,2.48-4.34l7.285-41.695a5.339,5.339,0,0,0-1.395-4.96l-3.875-4.96a5.868,5.868,0,0,0-4.805-2.17H78.74a6.552,6.552,0,0,0-4.805,1.7l-6.975,5.89a6.9,6.9,0,0,0-2.48,4.34l-2.325,13.95c-.465,2.635.775,4.185,3.41,4.185h7.13a3.943,3.943,0,0,0,4.185-3.565l1.86-10.695,3.72-3.1h4.65l2.48,3.1L83.7-68.2l-3.72,3.1H69.13a6.552,6.552,0,0,0-4.805,1.7L57.35-57.5a6.9,6.9,0,0,0-2.48,4.34L46.345-4.185C45.88-1.55,47.12,0,49.755,0h32.55A3.943,3.943,0,0,0,86.49-3.565Z" transform="translate(13.67 127.8)" fill="url(#linear-gradient)"/>
  </g>
</svg>
