<svg xmlns="http://www.w3.org/2000/svg" xmlns:xlink="http://www.w3.org/1999/xlink" width="305" height="85" viewBox="0 0 305 85">
  <defs>
    <linearGradient id="linear-gradient" x1="0.5" x2="0.5" y2="1" gradientUnits="objectBoundingBox">
      <stop offset="0" stop-color="#5df59b"/>
      <stop offset="1" stop-color="#00e65f"/>
    </linearGradient>
    <filter id="Rectangle_267" x="0" y="0" width="305" height="85" filterUnits="userSpaceOnUse">
      <feOffset dx="3" dy="3" input="SourceAlpha"/>
      <feGaussianBlur stdDeviation="2.5" result="blur"/>
      <feFlood flood-opacity="0.549"/>
      <feComposite operator="in" in2="blur"/>
      <feComposite in="SourceGraphic"/>
    </filter>
    <clipPath id="clip-path">
      <rect id="Rectangle_265" data-name="Rectangle 265" width="40.045" height="40.045" fill="url(#linear-gradient)"/>
    </clipPath>
    <clipPath id="clip-path-2">
      <rect id="Rectangle_266" data-name="Rectangle 266" width="20.728" height="27.033" fill="none"/>
    </clipPath>
  </defs>
  <g id="Group_264" data-name="Group 264" transform="translate(653.5 -8543.5)">
    <g transform="matrix(1, 0, 0, 1, -653.5, 8543.5)" filter="url(#Rectangle_267)">
      <rect id="Rectangle_267-2" data-name="Rectangle 267" width="290" height="70" rx="35" transform="translate(4.5 4.5)" fill="#fff"/>
    </g>
    <g id="Rectangle_268" data-name="Rectangle 268" transform="translate(-647 8550)" fill="none" stroke="#06c755" stroke-width="2">
      <rect width="285.5" height="65.5" rx="32.75" stroke="none"/>
      <rect x="1" y="1" width="283.5" height="63.5" rx="31.75" fill="none"/>
    </g>
    <g id="Group_260" data-name="Group 260" transform="translate(4.504 -66)">
      <text id="電話予約" transform="translate(-482.525 8658)" font-size="25" font-family="YuGothicUI-Bold, Yu Gothic UI" font-weight="700" letter-spacing="-0.03em"><tspan x="-48.875" y="0">電話予約</tspan></text>
      <g id="Group_257" data-name="Group 257" transform="translate(-1.504 325)">
        <g id="Group_252" data-name="Group 252" transform="translate(-582 8304)">
          <g id="Group_251" data-name="Group 251" transform="translate(0 0)" clip-path="url(#clip-path)">
            <path id="Path_336" data-name="Path 336" d="M31.017,40.045H9.028A9.027,9.027,0,0,1,0,31.017V9.028A9.028,9.028,0,0,1,9.028,0h21.99a9.028,9.028,0,0,1,9.028,9.028v21.99a9.027,9.027,0,0,1-9.028,9.028" transform="translate(0 0)" fill="url(#linear-gradient)"/>
            <path id="Path_339" data-name="Path 339" d="M28.74,40.478a.255.255,0,0,0,.255-.255v-.947a.255.255,0,0,0-.255-.255H26.191V34.4a.256.256,0,0,0-.255-.255h-.947a.255.255,0,0,0-.255.255v5.822h0v0a.255.255,0,0,0,.255.255H28.74Z" transform="translate(-13.687 -18.892)" fill="url(#linear-gradient)"/>
          </g>
        </g>
        <g id="Group_256" data-name="Group 256" transform="translate(-572 8311)">
          <g id="Group_255" data-name="Group 255" clip-path="url(#clip-path-2)">
            <path id="Path_342" data-name="Path 342" d="M1.853,1.145C0,2.35-.369,6.116.332,9.185A27.722,27.722,0,0,0,4,17.8a28.791,28.791,0,0,0,6.371,6.86c2.516,1.892,6.1,3.094,7.961,1.89a9.408,9.408,0,0,0,2.4-2.572l-1-1.539-2.744-4.231c-.2-.314-1.483-.027-2.132.341a6.187,6.187,0,0,0-1.683,1.829c-.6.347-1.1,0-2.155-.483-1.293-.595-2.746-2.442-3.9-4.115-1.056-1.738-2.151-3.819-2.166-5.241-.013-1.158-.124-1.758.438-2.165a6.184,6.184,0,0,0,2.356-.791c.6-.443,1.385-1.493,1.181-1.808L6.178,1.543,5.18,0A9.41,9.41,0,0,0,1.853,1.145" transform="translate(0 0)" fill="#fff"/>
          </g>
        </g>
      </g>
    </g>
  </g>
</svg>
