<svg id="组_106" data-name="组 106" xmlns="http://www.w3.org/2000/svg" xmlns:xlink="http://www.w3.org/1999/xlink" width="441.546" height="41.34" viewBox="0 0 441.546 41.34">
  <defs>
    <clipPath id="clip-path">
      <rect id="矩形_166" data-name="矩形 166" width="441.546" height="41.34" fill="#fff"/>
    </clipPath>
    <linearGradient id="linear-gradient" x1="0.5" x2="0.5" y2="1" gradientUnits="objectBoundingBox">
      <stop offset="0" stop-color="#f7f9ff"/>
      <stop offset="1" stop-color="#27a4ff"/>
    </linearGradient>
  </defs>
  <g id="组_106-2" data-name="组 106" clip-path="url(#clip-path)">
    <path id="路径_187" data-name="路径 187" d="M10,31.713c1.455,0,7.612-.312,9.815-.554a14.455,14.455,0,0,0,2.744-.485l2.95,3.878c-.914.554-2.526,1.559-3.417,2.251-2.588,1.87-5.266,3.982-7.559,5.644,4.331-.415,9.83-.727,13.6-.727l-.4,4.952a54.939,54.939,0,0,0-9.007.035c-3.084.416-5.536,2.32-5.764,4.918-.2,2.32,1.475,3.325,4.53,3.636a36.249,36.249,0,0,0,5.431.069l-1.593,5.54c-9.141.381-14.376-2.32-13.849-8.345a9.013,9.013,0,0,1,2.086-4.848C6.679,47.884,3.2,48.4.04,48.958L0,43.868c1.851-.173,4.337-.485,6.19-.692a90.636,90.636,0,0,0,9.412-7.03c-1.36.1-4.63.277-6.028.416-.837.069-2.1.208-3.389.346l.224-5.333c1.238.1,2.343.139,3.589.139" transform="translate(0 -21.306)" fill="#fff"/>
    <path id="路径_188" data-name="路径 188" d="M112.329,32.52c-.108.451-.276,1.177-.5,2.147a41.5,41.5,0,0,0,5.964-.485l-.61,4.987a54.939,54.939,0,0,1-6.471.346c-.283,1.247-.536,2.562-.821,3.844h.035a67.685,67.685,0,0,0,6.824-.416l-.572,4.952a57.808,57.808,0,0,1-5.776.312h-1.42c-.139.8-.235,1.489-.28,2.008-.227,2.6,1.326,3.844,4.408,3.844,4.606,0,7.048-2.182,7.26-4.606.206-2.355-.931-4.4-2.859-6.51l6-1.247c1.985,3.047,2.774,5.506,2.516,8.45-.461,5.264-5.566,9.384-13.565,9.384-5.888,0-9.545-2.528-9.03-8.415.067-.762.236-1.9.489-3.221a39.918,39.918,0,0,1-6.174-1.074l.719-5.056a28.248,28.248,0,0,0,6.427,1.351c.251-1.281.539-2.6.825-3.878a37.8,37.8,0,0,1-6.471-1.247l.664-4.814a28.736,28.736,0,0,0,6.779,1.282c.177-.831.316-1.628.408-2.286a20.161,20.161,0,0,0,.369-3.428l5.86.312c-.473,1.454-.738,2.493-1,3.463" transform="translate(-67.892 -19.966)" fill="#fff"/>
    <path id="路径_189" data-name="路径 189" d="M208.628,31.713c1.455,0,7.612-.312,9.815-.554a14.456,14.456,0,0,0,2.744-.485l2.95,3.878c-.914.554-2.526,1.559-3.417,2.251-2.588,1.87-5.266,3.982-7.559,5.644,4.331-.415,9.83-.727,13.6-.727l-.4,4.952a54.939,54.939,0,0,0-9.007.035c-3.084.416-5.536,2.32-5.763,4.918-.2,2.32,1.475,3.325,4.53,3.636a36.249,36.249,0,0,0,5.431.069l-1.593,5.54c-9.141.381-14.376-2.32-13.849-8.345a9.013,9.013,0,0,1,2.086-4.848c-2.892.208-6.366.727-9.532,1.281l-.039-5.09c1.851-.173,4.337-.485,6.19-.692a90.64,90.64,0,0,0,9.412-7.03c-1.359.1-4.63.277-6.028.416-.837.069-2.1.208-3.389.346l.224-5.333c1.238.1,2.343.139,3.589.139" transform="translate(-137.964 -21.306)" fill="#fff"/>
    <path id="路径_190" data-name="路径 190" d="M310.958,32.52c-.108.451-.276,1.177-.5,2.147a41.5,41.5,0,0,0,5.964-.485l-.61,4.987a54.94,54.94,0,0,1-6.471.346c-.283,1.247-.536,2.562-.821,3.844h.034a67.684,67.684,0,0,0,6.824-.416l-.572,4.952a57.807,57.807,0,0,1-5.776.312h-1.42c-.139.8-.235,1.489-.28,2.008-.227,2.6,1.326,3.844,4.408,3.844,4.606,0,7.048-2.182,7.26-4.606.206-2.355-.931-4.4-2.859-6.51l6-1.247c1.985,3.047,2.774,5.506,2.516,8.45-.461,5.264-5.566,9.384-13.565,9.384-5.888,0-9.545-2.528-9.03-8.415.067-.762.236-1.9.489-3.221a39.919,39.919,0,0,1-6.174-1.074l.719-5.056a28.248,28.248,0,0,0,6.427,1.351c.251-1.281.539-2.6.825-3.878a37.8,37.8,0,0,1-6.471-1.247l.664-4.814a28.735,28.735,0,0,0,6.779,1.282c.177-.831.316-1.628.408-2.286a20.166,20.166,0,0,0,.369-3.428l5.86.312c-.473,1.454-.738,2.493-1,3.463" transform="translate(-205.855 -19.966)" fill="#fff"/>
    <path id="路径_191" data-name="路径 191" d="M425.114,6.052h-8.528l-1.913,21.861h-6.19l2.4-27.488h14.719Z" transform="translate(-283.723 -0.295)" fill="url(#linear-gradient)"/>
    <path id="路径_192" data-name="路径 192" d="M499,44.026H466.571l-.144,1.645H460.15L463.6,6.236h37.576l-.527,6.017H478.788l2.966.736c-.312.606-.629,1.255-.985,1.861h16.753l-.454,5.195h-9.35l-.182,2.078H498.7l-.469,5.368h-10.3c2.114,2.554,5.787,4.112,10.929,4.718a22.508,22.508,0,0,0-4.134,5.195c-4.982-.953-8.365-2.857-10.744-5.844-2.29,2.424-6.022,4.5-11.782,6.017a20.971,20.971,0,0,0-3.491-4.632c6.607-1.3,9.769-3.29,11.257-5.454H469.749l.47-5.368h4.242a30.824,30.824,0,0,0-4.764-2.943,20.024,20.024,0,0,0,5.973-6.926h-6.32L467.1,38.009h32.424Zm-22.1-23.982a26.04,26.04,0,0,1-2.13,2.078H481.3l.182-2.078Z" transform="translate(-319.61 -4.331)" fill="url(#linear-gradient)"/>
    <path id="路径_193" data-name="路径 193" d="M637.6,17.784a32.376,32.376,0,0,1-2.7,2.121,16.385,16.385,0,0,0,3.193,1.6,23.134,23.134,0,0,0-3.975,4.372,16.639,16.639,0,0,1-1.53-.822l-.549,6.277h-7.23l-.435,4.978c-.216,2.467-.759,3.723-2.606,4.545a16.732,16.732,0,0,1-6.345.779,22.253,22.253,0,0,0-1.465-5.021,25.122,25.122,0,0,1-4.633,4.459,25.817,25.817,0,0,0-4.318-3.593,18.119,18.119,0,0,0,5.836-5.844l5.491,1.558a22.577,22.577,0,0,1-2.377,3.42c1.295.043,3.113.043,3.633.043s.7-.13.741-.563l.417-4.762h-7.013l.553-6.32c-.684.39-1.367.779-2.094,1.169a12.723,12.723,0,0,0-2.238-3.117c-1.08,6.406-3.279,13.722-8.02,18.44a20.454,20.454,0,0,0-4.009-4.156,22.809,22.809,0,0,0,5.428-10.086c-1.5.866-2.961,1.688-4.415,2.467l-1.188-5.714c1.792-.692,4.181-1.775,6.8-2.987.149-1.212.248-2.337.343-3.42L603,16.528l-4.322,1.9a37.147,37.147,0,0,0-1.345-8.874L601.907,7.7a37.072,37.072,0,0,1,1.377,5.541l.844-9.653h13.29l.276-3.16h6.667l-.276,3.16h14.805l-.458,5.238h-15.2l2.355.3c-.226.606-.5,1.212-.762,1.774h13.117l-.406,4.632h-2.77Zm-28.946-.173c-.1,1.169-.259,2.467-.42,3.809a27.417,27.417,0,0,0,2.741-1.645c-.647-.52-1.334-1.082-1.945-1.515l3.312-2.727h-2.294l.405-4.632h8.4a14.172,14.172,0,0,0,.874-2.078h-10.3Zm3.818-2.078c.612.433,1.349.909,2,1.428.518-.476.95-.952,1.381-1.428ZM627,26.7h-9.654l-.095,1.082H626.9Zm.383-4.372h-9.654l-.091,1.039h9.654Zm-5.12-6.8a29.891,29.891,0,0,1-2.448,3.246h6.45a28.051,28.051,0,0,1-1.751-3.246Zm8.277,16.233a37.3,37.3,0,0,1,5.261,6.666l-5.379,2.6a33.8,33.8,0,0,0-4.892-6.926Zm-.268-16.233a19.944,19.944,0,0,0,1.526,1.861c.789-.606,1.542-1.3,2.154-1.861Z" transform="translate(-413.803 -0.295)" fill="url(#linear-gradient)"/>
    <path id="路径_194" data-name="路径 194" d="M770.361,35.556c.475,0,.705-.65,1.179-5.065a14.625,14.625,0,0,0,5.116,2.381c-1.088,6.493-2.719,8.311-6.1,8.311h-2.424c-4.372,0-5.118-1.861-4.656-7.143l.826-9.437h-1.645c-1.128,7.446-3.17,13.462-10.858,17.229a16.928,16.928,0,0,0-2.257-3.9,4.1,4.1,0,0,1-1.617,2.164c-1.472,1-3.176,1.169-5.643,1.169a18.732,18.732,0,0,0-.925-5.757c.992.043,2.161.043,2.594.043s.578-.173.619-.65l.644-7.359h-2.944a54.957,54.957,0,0,1-3.655,14.068,18.474,18.474,0,0,0-4.574-2.641c2.64-5.93,3.539-14.718,4.091-21.038l1.386-15.843h13.42L750.06,35.036a8.823,8.823,0,0,1-.138,1.082c4.824-2.684,5.865-6.666,6.592-11.514h-3.636l1.345-15.367h3.809A32.947,32.947,0,0,0,755.55,2.96L761.111.752A25.378,25.378,0,0,1,764.356,8.2l-2.515,1.039h3.853A53.432,53.432,0,0,0,769.513.709l6.446,2.034c-1.24,2.294-2.519,4.545-3.729,6.493h3.464L774.349,24.6h-3.982L769.545,34c-.125,1.429-.093,1.559.253,1.559ZM745.724,21.747,746.1,17.5h-2.641l-.038.433c-.1,1.169-.216,2.467-.376,3.809ZM744.307,7.765l-.356,4.069h2.641l.356-4.069Zm24.459,6.926h-8.875l-.39,4.459h8.875Z" transform="translate(-509.852 -0.492)" fill="url(#linear-gradient)"/>
    <path id="路径_195" data-name="路径 195" d="M910.828,34.457c2.467,0,3.019-.866,3.811-5.454a18.193,18.193,0,0,0,5.884,2.511c-1.464,6.839-3.609,9.091-9.626,9.091h-8.7c-7.143,0-8.917-1.991-8.307-8.961l.132-1.515-13.135,1.688-.288-6.1,13.957-1.688.322-3.679L883.311,21.9l-.335-6.06,12.434-1.6.33-3.766c-4,.65-7.985,1.212-11.793,1.688a20.85,20.85,0,0,0-1.416-5.584C893.423,5.281,905.1,2.9,912.673,0l4.7,5.151a115.357,115.357,0,0,1-14.941,4.026l-.367,4.2,15.326-1.991.351,5.887-16.207,2.165-.33,3.766,17.9-2.165.308,5.887-18.737,2.381-.2,2.337c-.223,2.554.1,2.814,2.914,2.814Z" transform="translate(-611.644)" fill="url(#linear-gradient)"/>
    <path id="路径_196" data-name="路径 196" d="M1014.189,66.931h8.528l1.912-21.86h6.19l-2.4,27.488H1013.7Z" transform="translate(-704.092 -31.305)" fill="url(#linear-gradient)"/>
    <path id="路径_197" data-name="路径 197" d="M1092.171,62.9c2.381-.692,8.507-2.632,12.767-2.632,5.818,0,9.258,3.428,8.773,8.969-.527,6.025-5.967,10.8-17.944,11.531l-1.8-5.16c8.157-.208,13.775-2.285,14.142-6.476.209-2.39-1.383-3.982-4.119-3.982-3.879,0-10.626,2.7-14.147,4.156l-1.672-5.437a40.321,40.321,0,0,0,4-.97" transform="translate(-755.822 -41.859)" fill="#fff"/>
    <path id="路径_198" data-name="路径 198" d="M1178.744,37.305c3.28-.277,8.545-.693,14.932-1.247,3.487-.277,7.595-.52,10.132-.623l-.438,5.4a44.428,44.428,0,0,0-6.686.416,10.767,10.767,0,0,0-7.749,9c-.445,5.09,4.158,7.1,10.119,7.445l-2.483,5.818c-7.671-.589-13.919-4.779-13.274-12.155a15.616,15.616,0,0,1,5.282-10.112c-3.006.312-9.161,1-13.4,1.939l-.02-5.714c1.388-.035,2.918-.1,3.582-.173" transform="translate(-816.243 -24.612)" fill="#fff"/>
    <path id="路径_199" data-name="路径 199" d="M1301.876,32.011h-1.836l-1.721,19.67c-.236,2.7-.871,4.017-2.569,4.813-1.694.762-4.1.935-7.212.9a18.156,18.156,0,0,0-1.218-5.09c1.966.1,4.285.1,4.978.1.658,0,.916-.173.97-.8l1.715-19.6h-14.476l.418-4.779c-.76,1.559-1.661,3.151-2.591,4.675l-2.215,25.314H1271.1l1.53-17.488a29.98,29.98,0,0,1-2.209,2.285,30.759,30.759,0,0,0-2.134-5.3,39.3,39.3,0,0,0,8.738-12.4l4.577,1.523-.638,1.351H1302.3ZM1283.882,48.08l-.191,2.182h-4.71l1.324-15.133h11.982l-1.133,12.951Zm.757-8.657-.382,4.363h2.632l.382-4.363Z" transform="translate(-880.925 -16.895)" fill="#fff"/>
    <path id="路径_200" data-name="路径 200" d="M1398.945,43.192c.167-1.9-1.385-2.77-3.671-2.77-1.974,0-3.507.9-5.171,2.493l-3.121-3.117a12.879,12.879,0,0,1,9.455-4.363c5.091,0,8.876,2.251,8.443,7.2-.436,4.987-7.635,5.333-7.724,9.9h-5.4c-.094-5.263,6.924-6.3,7.19-9.35m-8.555,15.445a3.736,3.736,0,0,1,3.835-3.463,3.042,3.042,0,0,1,3.23,3.463,3.8,3.8,0,0,1-3.842,3.532,3.075,3.075,0,0,1-3.223-3.532" transform="translate(-963.368 -24.612)" fill="#fff"/>
  </g>
</svg>
