<svg xmlns="http://www.w3.org/2000/svg" xmlns:xlink="http://www.w3.org/1999/xlink" width="425.06" height="62.009" viewBox="0 0 425.06 62.009">
  <defs>
    <linearGradient id="linear-gradient" x1="0.5" x2="0.5" y2="1" gradientUnits="objectBoundingBox">
      <stop offset="0" stop-color="#e50111"/>
      <stop offset="1" stop-color="#5c0108"/>
    </linearGradient>
    <clipPath id="clip-path">
      <rect id="矩形_164" data-name="矩形 164" width="425.06" height="62.009" fill="url(#linear-gradient)"/>
    </clipPath>
  </defs>
  <g id="组_100" data-name="组 100" clip-path="url(#clip-path)">
    <path id="路径_158" data-name="路径 158" d="M44.733,23.388h18.16l-.755,8.628H57.243L54.5,63.375H45.677l2.744-31.359H43.978c-1.091,9.53-3.873,22.924-12.6,31.424a18.358,18.358,0,0,0-5.042-5.666H8.433L8.05,62.152H0L5.047,4.457H13.1L10.117,38.52a40.331,40.331,0,0,0,8.236-10.239H11.978l.676-7.727h6.954l.2-2.318L14.25,19.975a43.174,43.174,0,0,0-.839-11.011l5.7-1.8a39.628,39.628,0,0,1,1.1,6.5l.919-10.5h7.6l-1.076,12.3a80.427,80.427,0,0,0,2.4-8.306l7.072,1.61c-1.954,3.928-3.952,8.37-5.482,11.14l-4.266-1.288-.169,1.932h6.954l-.676,7.727H26.531l-.017.193c1.561,1.288,6.056,5.86,7.173,7.083L28.252,41.74c-.6-1.224-1.486-2.9-2.5-4.572L24.746,48.694h-7.6l.744-8.5a32.083,32.083,0,0,1-5.737,6.7,36.624,36.624,0,0,0-2.194-6.568l-.828,9.465H30.317l-.029.322c3.478-6.632,4.459-14.166,5.011-20.476L37.266,7.162l4.9,1.416a76.6,76.6,0,0,0,15.043-5.6l6.878,6.761a105.627,105.627,0,0,1-18.666,5.8Z" transform="translate(0 -1.624)" fill="url(#linear-gradient)"/>
    <path id="路径_159" data-name="路径 159" d="M139.546,58.338c2.942-2.7,6.156-7.792,7.983-12.492l8.952,2.189a43.152,43.152,0,0,1-8.171,13.909Zm52.479-36.768c1.687,7.212,4.963,13.2,10.868,16.356a40.057,40.057,0,0,0-7.015,8.048c-4.682-3.155-7.76-7.727-9.77-13.457-3.079,5.022-7.928,9.658-15.59,13.329a32.1,32.1,0,0,0-5.935-6.5c10.684-5.087,14.983-11.526,16.752-17.772h-6.954l.377-4.314c-6.181,13.973-15.568,23.374-26.632,28.4a27.4,27.4,0,0,0-5.949-7.083A45.559,45.559,0,0,0,154.4,31.294a42.823,42.823,0,0,0-5.256-4.7c-.555.45-1.045.9-1.594,1.288a43.69,43.69,0,0,0-5.723-5.988C149.115,16.677,155.395,7.469,158.495,0l8.684,2.317c-.616,1.159-1.238,2.383-1.855,3.541h5.6l1.573-.322,5.716,2.382c-.533,1.674-1.06,3.284-1.646,4.829h6.118l.963-11.011h8.822l-.253,2.9,6.942-3.542A37.659,37.659,0,0,1,203.973,9.4l-6.282,3.348h5.023l-.771,8.822Zm-30.359,1.8a51.069,51.069,0,0,0-5.516-3.928c-.642.709-1.219,1.416-1.86,2.125a41.766,41.766,0,0,1,5.488,4.25c.647-.773,1.3-1.609,1.888-2.447m6.464,24.018a77.188,77.188,0,0,1,.587,12.427l-9.326,1.353a86.4,86.4,0,0,0-.044-12.749Zm-7.306-34.256-.524.837a55.866,55.866,0,0,1,5.133,3.155c.627-1.288,1.2-2.641,1.765-3.992ZM180.9,47.2a61.822,61.822,0,0,1,2.536,12.234l-9.559,1.8a65.625,65.625,0,0,0-1.929-12.556Zm13.148-1.61c2.42,3.992,5.483,9.465,6.771,13.136l-9.935,3.155c-.978-3.541-3.761-9.273-6.094-13.522Zm-2.536-32.84h4.765A42.4,42.4,0,0,0,192.2,4.893Z" transform="translate(-76.147)" fill="url(#linear-gradient)"/>
    <path id="路径_160" data-name="路径 160" d="M289.305,59.094a6.948,6.948,0,0,1,7.132-6.439c3.8,0,6.337,2.641,6,6.439a7.066,7.066,0,0,1-7.143,6.568,5.717,5.717,0,0,1-5.994-6.568m3.416-31.68.549-10.689h12.621l-1.322,10.689-3.712,20.347h-7.985Z" transform="translate(-157.852 -9.126)" fill="url(#linear-gradient)"/>
    <path id="路径_161" data-name="路径 161" d="M392.256,63.583H344.024l-.214,2.447h-9.337L339.6,7.369H395.5l-.783,8.951H362.2l4.412,1.095c-.465.9-.936,1.868-1.466,2.769h24.921l-.676,7.727H375.479L375.209,31h16.614l-.7,7.984H375.8c3.145,3.8,8.609,6.117,16.258,7.019a33.486,33.486,0,0,0-6.15,7.727c-7.41-1.417-12.443-4.25-15.982-8.693-3.406,3.606-8.958,6.7-17.526,8.95A31.176,31.176,0,0,0,347.2,47.1c9.829-1.932,14.531-4.894,16.744-8.113h-15.2l.7-7.984h6.31a45.858,45.858,0,0,0-7.086-4.379,29.78,29.78,0,0,0,8.886-10.3h-9.4l-3.352,38.313h48.232ZM359.38,27.91A38.749,38.749,0,0,1,356.212,31h9.724l.27-3.091Z" transform="translate(-182.515 -4.021)" fill="url(#linear-gradient)"/>
    <path id="路径_162" data-name="路径 162" d="M532.327,27.379a48.134,48.134,0,0,1-4.011,3.155,24.373,24.373,0,0,0,4.75,2.383,34.425,34.425,0,0,0-5.914,6.5,24.772,24.772,0,0,1-2.276-1.223l-.817,9.337H513.306l-.648,7.4c-.321,3.67-1.129,5.538-3.876,6.761-2.672,1.095-5.7,1.159-9.439,1.159a33.073,33.073,0,0,0-2.18-7.47,37.342,37.342,0,0,1-6.891,6.633,38.44,38.44,0,0,0-6.423-5.345,26.944,26.944,0,0,0,8.682-8.693L500.7,50.3a33.572,33.572,0,0,1-3.536,5.087c1.926.065,4.631.065,5.4.065s1.047-.193,1.1-.837l.62-7.083H493.859l.822-9.4c-1.017.579-2.033,1.159-3.114,1.738a18.951,18.951,0,0,0-3.329-4.636c-1.607,9.53-4.877,20.412-11.93,27.431a30.426,30.426,0,0,0-5.963-6.181c4.171-4.25,6.57-9.595,8.074-15-2.238,1.288-4.405,2.512-6.568,3.671l-1.767-8.5c2.666-1.03,6.22-2.64,10.112-4.443.222-1.8.368-3.477.51-5.087l.14-1.61-6.43,2.833a55.262,55.262,0,0,0-2-13.2l6.811-2.768a55.111,55.111,0,0,1,2.048,8.242l1.256-14.36H502.3l.411-4.7h9.917l-.411,4.7h22.023l-.682,7.792h-22.6l3.5.451c-.336.9-.737,1.8-1.133,2.641h19.512l-.6,6.889h-4.121Zm-43.058-.258c-.152,1.739-.386,3.67-.625,5.666a40.833,40.833,0,0,0,4.078-2.447c-.963-.773-1.984-1.61-2.894-2.253l4.927-4.057h-3.412l.6-6.889h12.492a21.072,21.072,0,0,0,1.3-3.091H490.413Zm5.679-3.091c.91.644,2.007,1.353,2.969,2.125.771-.709,1.412-1.417,2.054-2.125Zm21.6,16.613h-14.36l-.141,1.611h14.36Zm.569-6.5h-14.36l-.135,1.546h14.36ZM509.5,24.03a44.456,44.456,0,0,1-3.642,4.83h9.595a41.793,41.793,0,0,1-2.6-4.83Zm12.313,24.147c2.772,2.9,6.276,7.019,7.826,9.916l-8,3.863c-1.239-2.769-4.521-7.212-7.276-10.3Zm-.4-24.147a29.783,29.783,0,0,0,2.269,2.77c1.174-.9,2.294-1.932,3.2-2.77Z" transform="translate(-256.515 -0.85)" fill="url(#linear-gradient)"/>
    <path id="路径_163" data-name="路径 163" d="M662.389,53.678c.708,0,1.05-.966,1.753-7.534,1.551,1.417,5.279,2.962,7.611,3.541-1.618,9.659-4.043,12.363-9.066,12.363H659.08c-6.5,0-7.614-2.768-6.927-10.624l1.229-14.038h-2.447c-1.678,11.075-4.715,20.026-16.151,25.628a25.206,25.206,0,0,0-3.357-5.8,6.1,6.1,0,0,1-2.407,3.219c-2.19,1.482-4.724,1.739-8.394,1.739a27.835,27.835,0,0,0-1.376-8.564c1.476.065,3.214.065,3.859.065s.86-.258.921-.966l.958-10.946h-4.379c-1.1,7.469-2.811,15.2-5.437,20.927a27.462,27.462,0,0,0-6.8-3.928c3.927-8.822,5.264-21.893,6.086-31.294L616.515,3.9h19.962l-4.287,49a13.149,13.149,0,0,1-.205,1.61c7.175-3.992,8.724-9.916,9.806-17.128h-5.409l2-22.859h5.667a49.01,49.01,0,0,0-3.691-9.337l8.272-3.284a37.725,37.725,0,0,1,4.826,11.075l-3.741,1.546h5.731a79.537,79.537,0,0,0,5.682-12.685l9.588,3.026c-1.845,3.412-3.747,6.761-5.546,9.659h5.152l-2,22.859H662.4L661.175,51.36c-.186,2.125-.139,2.318.377,2.318ZM625.742,33.137l.552-6.311h-3.928l-.056.644c-.152,1.739-.321,3.67-.56,5.667Zm-2.109-20.8-.529,6.053h3.928l.529-6.053Zm36.384,10.3h-13.2l-.58,6.632h13.2Z" transform="translate(-331.974 -1.006)" fill="url(#linear-gradient)"/>
    <path id="路径_164" data-name="路径 164" d="M799.888,52.388c3.67,0,4.491-1.288,5.668-8.113a27.078,27.078,0,0,0,8.753,3.735c-2.178,10.174-5.369,13.522-14.32,13.522H787.046c-10.625,0-13.263-2.963-12.357-13.329l.2-2.253L755.348,48.46l-.429-9.079,20.762-2.511.478-5.474-17.2,2.318-.5-9.014,18.5-2.383.49-5.6c-5.945.966-11.878,1.8-17.542,2.511a31.03,31.03,0,0,0-2.106-8.306c16.2-1.932,33.577-5.474,44.838-9.788L809.626,8.8A171.528,171.528,0,0,1,787.4,14.784l-.547,6.246,22.8-2.962.522,8.757-24.108,3.22-.49,5.6,26.62-3.22.457,8.758-27.872,3.541-.3,3.477c-.332,3.8.149,4.185,4.335,4.185Z" transform="translate(-411.944 -0.618)" fill="url(#linear-gradient)"/>
    <path id="路径_165" data-name="路径 165" d="M899.052,59.094a6.949,6.949,0,0,1,7.132-6.439c3.8,0,6.337,2.641,6,6.439a7.066,7.066,0,0,1-7.143,6.568,5.718,5.718,0,0,1-5.994-6.568m3.416-31.68.549-10.689h12.621l-1.322,10.689L910.6,47.761H902.62Z" transform="translate(-490.578 -9.126)" fill="url(#linear-gradient)"/>
  </g>
</svg>
