<svg xmlns="http://www.w3.org/2000/svg" xmlns:xlink="http://www.w3.org/1999/xlink" width="305" height="85" viewBox="0 0 305 85">
  <defs>
    <filter id="Rectangle_269" x="0" y="0" width="305" height="85" filterUnits="userSpaceOnUse">
      <feOffset dx="3" dy="3" input="SourceAlpha"/>
      <feGaussianBlur stdDeviation="2.5" result="blur"/>
      <feFlood flood-opacity="0.549"/>
      <feComposite operator="in" in2="blur"/>
      <feComposite in="SourceGraphic"/>
    </filter>
    <clipPath id="clip-path">
      <rect id="Rectangle_265" data-name="Rectangle 265" width="40.045" height="40.045" fill="none"/>
    </clipPath>
  </defs>
  <g id="Group_263" data-name="Group 263" transform="translate(345.5 -8543.5)">
    <g transform="matrix(1, 0, 0, 1, -345.5, 8543.5)" filter="url(#Rectangle_269)">
      <rect id="Rectangle_269-2" data-name="Rectangle 269" width="290" height="70" rx="35" transform="translate(4.5 4.5)" fill="#fff"/>
    </g>
    <g id="Group_262" data-name="Group 262" transform="translate(-4.774 0.022)">
      <g id="Group_261" data-name="Group 261" transform="translate(-270.226 8562.978)">
        <g id="Group_251" data-name="Group 251" transform="translate(0 0)" clip-path="url(#clip-path)">
          <path id="Path_336" data-name="Path 336" d="M31.017,40.045H9.028A9.027,9.027,0,0,1,0,31.017V9.028A9.028,9.028,0,0,1,9.028,0h21.99a9.028,9.028,0,0,1,9.028,9.028v21.99a9.027,9.027,0,0,1-9.028,9.028" transform="translate(0 0)" fill="#06c755"/>
          <path id="Path_337" data-name="Path 337" d="M26.094,37.871c.435.094,1.027.287,1.176.658a2.736,2.736,0,0,1,.043,1.207s-.156.942-.19,1.143c-.059.337-.268,1.32,1.156.72s7.688-4.527,10.49-7.751h0a9.64,9.64,0,0,0,2.862-6.666c0-5.974-5.989-10.835-13.351-10.835s-13.351,4.86-13.351,10.835c0,5.356,4.75,9.841,11.166,10.689" transform="translate(-8.261 -9.046)" fill="#fff"/>
          <path id="Path_338" data-name="Path 338" d="M59.8,40.478H56.053a.255.255,0,0,1-.255-.255v0h0V34.4h0V34.4a.255.255,0,0,1,.255-.255H59.8a.256.256,0,0,1,.255.255v.947a.255.255,0,0,1-.255.255H57.255v.984H59.8a.256.256,0,0,1,.255.255v.946a.255.255,0,0,1-.255.255H57.255v.984H59.8a.255.255,0,0,1,.255.255v.947a.255.255,0,0,1-.255.255" transform="translate(-30.876 -18.892)" fill="#06c755"/>
          <path id="Path_339" data-name="Path 339" d="M28.74,40.478a.255.255,0,0,0,.255-.255v-.947a.255.255,0,0,0-.255-.255H26.191V34.4a.256.256,0,0,0-.255-.255h-.947a.255.255,0,0,0-.255.255v5.822h0v0a.255.255,0,0,0,.255.255H28.74Z" transform="translate(-13.687 -18.892)" fill="#06c755"/>
          <path id="Path_340" data-name="Path 340" d="M37.269,34.141h-.947a.255.255,0,0,0-.255.255v5.826a.255.255,0,0,0,.255.255h.947a.255.255,0,0,0,.255-.255V34.4a.255.255,0,0,0-.255-.255" transform="translate(-19.958 -18.892)" fill="#06c755"/>
          <path id="Path_341" data-name="Path 341" d="M46.648,34.141H45.7a.255.255,0,0,0-.255.255v3.461l-2.666-3.6a.29.29,0,0,0-.021-.026l0,0-.015-.016,0,0-.014-.012-.007-.005-.013-.009-.008,0-.014-.008-.008,0-.015-.007-.008,0-.015,0-.009,0-.015,0-.011,0-.014,0h-.964a.255.255,0,0,0-.255.255v5.826a.255.255,0,0,0,.255.255h.947a.255.255,0,0,0,.255-.255v-3.46l2.669,3.6a.257.257,0,0,0,.066.064l0,0,.016.01.007,0,.013.006.013.005.008,0,.017.006h0a.249.249,0,0,0,.067.009h.942a.255.255,0,0,0,.255-.255V34.4a.255.255,0,0,0-.255-.255" transform="translate(-22.891 -18.892)" fill="#06c755"/>
        </g>
      </g>
      <text id="LINE予約" transform="translate(-164.745 8591.985)" font-size="25" font-family="SegoeUI-Bold, Segoe UI" font-weight="700" letter-spacing="-0.03em"><tspan x="-50.005" y="0">LINE</tspan><tspan y="0" font-family="YuGothicUI-Bold, Yu Gothic UI">予約</tspan></text>
    </g>
    <g id="Rectangle_270" data-name="Rectangle 270" transform="translate(-339 8550)" fill="none" stroke="#06c755" stroke-width="2">
      <rect width="285.5" height="65.5" rx="32.75" stroke="none"/>
      <rect x="1" y="1" width="283.5" height="63.5" rx="31.75" fill="none"/>
    </g>
  </g>
</svg>
