<svg xmlns="http://www.w3.org/2000/svg" xmlns:xlink="http://www.w3.org/1999/xlink" width="140.735" height="147.8" viewBox="0 0 140.735 147.8">
  <defs>
    <linearGradient id="linear-gradient" x1="0.5" x2="0.5" y2="1" gradientUnits="objectBoundingBox">
      <stop offset="0" stop-color="#e50111"/>
      <stop offset="1" stop-color="#5c0108"/>
    </linearGradient>
    <filter id="路径_211" x="0" y="0" width="140.735" height="147.8" filterUnits="userSpaceOnUse">
      <feOffset dx="5" dy="5" input="SourceAlpha"/>
      <feGaussianBlur stdDeviation="5" result="blur"/>
      <feFlood flood-opacity="0.161"/>
      <feComposite operator="in" in2="blur"/>
      <feComposite in="SourceGraphic"/>
    </filter>
  </defs>
  <g transform="matrix(1, 0, 0, 1, 0, 0)" filter="url(#路径_211)">
    <path id="路径_211-2" data-name="路径 211" d="M27.125-117.8a6.552,6.552,0,0,0-4.805,1.7l-6.975,5.89a6.9,6.9,0,0,0-2.48,4.34L-3.565-12.09A5.339,5.339,0,0,0-2.17-7.13L1.705-2.17A5.868,5.868,0,0,0,6.51,0h18.6a6.552,6.552,0,0,0,4.805-1.705l6.975-5.89a6.9,6.9,0,0,0,2.48-4.34L55.8-105.71a5.339,5.339,0,0,0-1.4-4.96l-3.875-4.96a5.868,5.868,0,0,0-4.805-2.17ZM37.82-105.09l2.48,3.1L25.11-15.81l-3.72,3.1H14.415l-2.48-3.1,15.19-86.18,3.72-3.1Zm40.3-12.71a6.552,6.552,0,0,0-4.805,1.7l-6.975,5.89a6.9,6.9,0,0,0-2.48,4.34l-2.79,16.43c-.465,2.635.775,4.185,3.41,4.185h7.13a3.943,3.943,0,0,0,4.185-3.565L78.12-102.3l3.72-3.1h7.13l2.48,3.1L85.715-69.44,82-66.34h-9.61A3.943,3.943,0,0,0,68.2-62.775l-.93,5.27c-.31,2.635.93,4.185,3.565,4.185h8.99l2.48,3.1L76.26-15.5l-3.72,3.1H65.565l-2.48-3.1,2.17-12.865c.465-2.635-.775-4.185-3.41-4.185h-7.13a3.943,3.943,0,0,0-4.185,3.565l-2.945,16.9a5.339,5.339,0,0,0,1.4,4.96l3.875,4.96A5.868,5.868,0,0,0,57.66,0h18.6a6.552,6.552,0,0,0,4.805-1.705l6.975-5.89a6.9,6.9,0,0,0,2.48-4.34l6.2-35.65a5.339,5.339,0,0,0-1.4-4.96L89.59-59.83l8.99-7.6a6.9,6.9,0,0,0,2.48-4.34l5.89-33.945a5.339,5.339,0,0,0-1.395-4.96l-3.875-4.96a5.868,5.868,0,0,0-4.805-2.17Z" transform="translate(13.67 127.8)" fill="url(#linear-gradient)"/>
  </g>
</svg>
