<svg xmlns="http://www.w3.org/2000/svg" xmlns:xlink="http://www.w3.org/1999/xlink" width="139.016" height="147.8" viewBox="0 0 139.016 147.8">
  <defs>
    <linearGradient id="linear-gradient" x1="0.5" x2="0.5" y2="1" gradientUnits="objectBoundingBox">
      <stop offset="0" stop-color="#e50111"/>
      <stop offset="1" stop-color="#5c0108"/>
    </linearGradient>
    <filter id="路径_215" x="0" y="0" width="139.016" height="147.8" filterUnits="userSpaceOnUse">
      <feOffset dx="5" dy="5" input="SourceAlpha"/>
      <feGaussianBlur stdDeviation="5" result="blur"/>
      <feFlood flood-opacity="0.749"/>
      <feComposite operator="in" in2="blur"/>
      <feComposite in="SourceGraphic"/>
    </filter>
  </defs>
  <g transform="matrix(1, 0, 0, 1, 0, 0)" filter="url(#路径_215)">
    <path id="路径_215-2" data-name="路径 215" d="M27.125-117.8a6.552,6.552,0,0,0-4.805,1.7l-6.975,5.89a6.9,6.9,0,0,0-2.48,4.34L-3.565-12.09A5.339,5.339,0,0,0-2.17-7.13L1.705-2.17A5.868,5.868,0,0,0,6.51,0h18.6a6.552,6.552,0,0,0,4.805-1.705l6.975-5.89a6.9,6.9,0,0,0,2.48-4.34L55.8-105.71a5.339,5.339,0,0,0-1.4-4.96l-3.875-4.96a5.868,5.868,0,0,0-4.805-2.17ZM37.82-105.09l2.48,3.1L25.11-15.81l-3.72,3.1H14.415l-2.48-3.1,15.19-86.18,3.72-3.1ZM86.645-117.8a4.271,4.271,0,0,0-4.5,2.945l-29.6,66.34a21.651,21.651,0,0,0-1.4,4.495l-1.24,6.975c-.465,2.635.775,4.185,3.565,4.185h22.94L71.455-4.185C70.99-1.55,72.23,0,74.865,0h6.82A3.943,3.943,0,0,0,85.87-3.565l5.115-29.3H95.17a3.943,3.943,0,0,0,4.185-3.565l.93-4.96c.465-2.635-.775-4.185-3.565-4.185H93.31l11.935-68.045c.465-2.635-.775-4.185-3.41-4.185ZM64.015-45.57l24.8-57.35L78.74-45.57Z" transform="translate(13.67 127.8)" fill="url(#linear-gradient)"/>
  </g>
</svg>
