<svg xmlns="http://www.w3.org/2000/svg" xmlns:xlink="http://www.w3.org/1999/xlink" width="92.121" height="117.8" viewBox="0 0 92.121 117.8">
  <defs>
    <linearGradient id="linear-gradient" x1="0.5" x2="0.5" y2="1" gradientUnits="objectBoundingBox">
      <stop offset="0" stop-color="#e50111"/>
      <stop offset="1" stop-color="#5c0108"/>
    </linearGradient>
  </defs>
  <path id="路径_204" data-name="路径 204" d="M27.125-117.8a6.552,6.552,0,0,0-4.805,1.7l-6.975,5.89a6.9,6.9,0,0,0-2.48,4.34L-3.565-12.09A5.339,5.339,0,0,0-2.17-7.13L1.705-2.17A5.868,5.868,0,0,0,6.51,0h18.6a6.552,6.552,0,0,0,4.805-1.705l6.975-5.89a6.9,6.9,0,0,0,2.48-4.34L55.8-105.71a5.339,5.339,0,0,0-1.4-4.96l-3.875-4.96a5.868,5.868,0,0,0-4.805-2.17ZM37.82-105.09l2.48,3.1L25.11-15.81l-3.72,3.1H14.415l-2.48-3.1,15.19-86.18,3.72-3.1Zm50.53-8.525c.465-2.635-.775-4.185-3.41-4.185H67.425a3.943,3.943,0,0,0-4.185,3.565l-.775,4.96c-.465,2.635.775,4.185,3.41,4.185h6.2L54.25-4.185C53.785-1.55,55.025,0,57.66,0h7.13a3.943,3.943,0,0,0,4.185-3.565Z" transform="translate(3.675 117.8)" fill="url(#linear-gradient)"/>
</svg>
